<?xml version="1.0" encoding="UTF-8"?>
<!--
  Coin Flip — Lobby Hero Image (1920x1080 HD)
  Cinematic render: hero coin mid-flip with motion trail, on a saloon felt table,
  dramatic warm spotlight, atmospheric particles, stacked chips.
-->
<svg xmlns="http://www.w3.org/2000/svg" xmlns:xlink="http://www.w3.org/1999/xlink"
     viewBox="0 0 1920 1080">
  <defs>
    <!-- ================== BACKGROUND GRADIENTS ================== -->
    <radialGradient id="bg-spot" cx="30%" cy="20%" r="80%">
      <stop offset="0%"  stop-color="#7a3818" stop-opacity="1"/>
      <stop offset="20%" stop-color="#4a1c10" stop-opacity="1"/>
      <stop offset="60%" stop-color="#1a0a08" stop-opacity="1"/>
      <stop offset="100%" stop-color="#0a0404" stop-opacity="1"/>
    </radialGradient>
    <linearGradient id="felt" x1="0%" y1="0%" x2="0%" y2="100%">
      <stop offset="0%"  stop-color="#3d6b2e"/>
      <stop offset="50%" stop-color="#1f3818"/>
      <stop offset="100%" stop-color="#0a1808"/>
    </linearGradient>
    <radialGradient id="felt-spot" cx="35%" cy="40%" r="55%">
      <stop offset="0%"  stop-color="#5a8a3e" stop-opacity="0.7"/>
      <stop offset="50%" stop-color="#3d6b2e" stop-opacity="0.3"/>
      <stop offset="100%" stop-color="#1f3818" stop-opacity="0"/>
    </radialGradient>
    <linearGradient id="wood-edge" x1="0%" y1="0%" x2="0%" y2="100%">
      <stop offset="0%"  stop-color="#7a3818"/>
      <stop offset="50%" stop-color="#4a2818"/>
      <stop offset="100%" stop-color="#2a1810"/>
    </linearGradient>
    <radialGradient id="coin-face" cx="30%" cy="22%" r="75%">
      <stop offset="0%"  stop-color="#fff9e0"/>
      <stop offset="15%" stop-color="#ffe9a8"/>
      <stop offset="40%" stop-color="#f5c842"/>
      <stop offset="70%" stop-color="#c8941d"/>
      <stop offset="95%" stop-color="#7a5510"/>
      <stop offset="100%" stop-color="#3a2810"/>
    </radialGradient>
    <radialGradient id="coin-rim" cx="30%" cy="22%" r="70%">
      <stop offset="0%"  stop-color="#ffe9a8"/>
      <stop offset="40%" stop-color="#c8941d"/>
      <stop offset="80%" stop-color="#5a3810"/>
      <stop offset="100%" stop-color="#2a1810"/>
    </radialGradient>
    <linearGradient id="coin-edge" x1="0%" y1="0%" x2="0%" y2="100%">
      <stop offset="0%"  stop-color="#ffe9a8"/>
      <stop offset="20%" stop-color="#c8941d"/>
      <stop offset="50%" stop-color="#7a5510"/>
      <stop offset="80%" stop-color="#3a2810"/>
      <stop offset="100%" stop-color="#1a0f08"/>
    </linearGradient>
    <radialGradient id="coin-gloss" cx="32%" cy="18%" r="35%">
      <stop offset="0%"  stop-color="white" stop-opacity="0.85"/>
      <stop offset="35%" stop-color="white" stop-opacity="0.35"/>
      <stop offset="100%" stop-color="white" stop-opacity="0"/>
    </radialGradient>
    <linearGradient id="trail-grad" x1="0%" y1="0%" x2="100%" y2="0%">
      <stop offset="0%"  stop-color="#f5c842" stop-opacity="0"/>
      <stop offset="40%" stop-color="#f5c842" stop-opacity="0.25"/>
      <stop offset="85%" stop-color="#ffe9a8" stop-opacity="0.55"/>
      <stop offset="100%" stop-color="#fff9e0" stop-opacity="0.9"/>
    </linearGradient>
    <radialGradient id="spotlight" cx="50%" cy="50%" r="50%">
      <stop offset="0%"  stop-color="#ffd84d" stop-opacity="0.45"/>
      <stop offset="50%" stop-color="#c8941d" stop-opacity="0.15"/>
      <stop offset="100%" stop-color="#c8941d" stop-opacity="0"/>
    </radialGradient>
    <filter id="glow" x="-50%" y="-50%" width="200%" height="200%">
      <feGaussianBlur stdDeviation="8" result="blur"/>
      <feMerge><feMergeNode in="blur"/><feMergeNode in="SourceGraphic"/></feMerge>
    </filter>
    <filter id="bokeh-blur" x="-20%" y="-20%" width="140%" height="140%">
      <feGaussianBlur stdDeviation="12"/>
    </filter>
    <filter id="coin-shadow" x="-50%" y="-50%" width="200%" height="200%">
      <feGaussianBlur in="SourceAlpha" stdDeviation="14"/>
      <feOffset dx="20" dy="40"/>
      <feComponentTransfer><feFuncA type="linear" slope="0.7"/></feComponentTransfer>
      <feMerge><feMergeNode/><feMergeNode in="SourceGraphic"/></feMerge>
    </filter>
    <filter id="spark-glow" x="-100%" y="-100%" width="300%" height="300%">
      <feGaussianBlur stdDeviation="3" result="blur"/>
      <feMerge><feMergeNode in="blur"/><feMergeNode in="blur"/><feMergeNode in="SourceGraphic"/></feMerge>
    </filter>
    <filter id="engrave" x="-20%" y="-20%" width="140%" height="140%">
      <feGaussianBlur in="SourceAlpha" stdDeviation="1"/>
      <feOffset dx="1" dy="2"/>
      <feComponentTransfer><feFuncA type="linear" slope="0.6"/></feComponentTransfer>
      <feMerge><feMergeNode/><feMergeNode in="SourceGraphic"/></feMerge>
    </filter>
  </defs>

  <rect width="1920" height="1080" fill="url(#bg-spot)"/>

  <g filter="url(#bokeh-blur)" opacity="0.7">
    <circle cx="160" cy="180" r="55" fill="#ffd84d" opacity="0.5"/>
    <circle cx="320" cy="100" r="40" fill="#f5c842" opacity="0.6"/>
    <circle cx="240" cy="320" r="35" fill="#ffe9a8" opacity="0.4"/>
    <circle cx="450" cy="220" r="50" fill="#ff8868" opacity="0.3"/>
    <circle cx="1620" cy="160" r="60" fill="#c8941d" opacity="0.4"/>
    <circle cx="1780" cy="280" r="45" fill="#ffd84d" opacity="0.35"/>
    <circle cx="1480" cy="80" r="38" fill="#ffe9a8" opacity="0.4"/>
    <circle cx="80" cy="500" r="50" fill="#7a3818" opacity="0.5"/>
    <circle cx="1840" cy="600" r="45" fill="#7a3818" opacity="0.5"/>
  </g>

  <rect x="0" y="600" width="1920" height="480" fill="url(#felt)"/>
  <ellipse cx="700" cy="780" rx="900" ry="280" fill="url(#felt-spot)"/>

  <rect x="0" y="595" width="1920" height="14" fill="url(#wood-edge)"/>
  <rect x="0" y="595" width="1920" height="2" fill="#a87545"/>
  <rect x="0" y="608" width="1920" height="2" fill="#1a0f08"/>

  <g opacity="0.15">
    <circle cx="200" cy="700" r="1.5" fill="#5a8a3e"/>
    <circle cx="350" cy="850" r="1.5" fill="#5a8a3e"/>
    <circle cx="450" cy="720" r="1.2" fill="#5a8a3e"/>
    <circle cx="600" cy="900" r="1.5" fill="#5a8a3e"/>
    <circle cx="800" cy="760" r="1.2" fill="#5a8a3e"/>
    <circle cx="1000" cy="950" r="1.5" fill="#5a8a3e"/>
    <circle cx="1200" cy="820" r="1.2" fill="#5a8a3e"/>
    <circle cx="1400" cy="690" r="1.5" fill="#5a8a3e"/>
    <circle cx="1600" cy="880" r="1.5" fill="#5a8a3e"/>
    <circle cx="1750" cy="740" r="1.2" fill="#5a8a3e"/>
  </g>

  <ellipse cx="780" cy="500" rx="700" ry="450" fill="url(#spotlight)" opacity="0.8"/>

  <ellipse cx="820" cy="920" rx="380" ry="40" fill="black" opacity="0.30" filter="url(#bokeh-blur)"/>
  <ellipse cx="820" cy="920" rx="280" ry="28" fill="black" opacity="0.25" filter="url(#bokeh-blur)"/>

  <g>
    <g transform="translate(330 760) rotate(20)" opacity="0.25">
      <ellipse cx="0" cy="0" rx="170" ry="14" fill="url(#coin-rim)"/>
      <ellipse cx="0" cy="0" rx="170" ry="14" fill="none" stroke="#3a2810" stroke-width="1.5"/>
    </g>
    <g transform="translate(450 660) rotate(35)" opacity="0.35">
      <ellipse cx="0" cy="0" rx="180" ry="60" fill="url(#coin-rim)"/>
      <ellipse cx="0" cy="0" rx="180" ry="60" fill="none" stroke="#3a2810" stroke-width="2"/>
      <ellipse cx="0" cy="0" rx="170" ry="50" fill="none" stroke="#7a5510" stroke-width="1"/>
    </g>
    <g transform="translate(610 540) rotate(15)" opacity="0.45">
      <ellipse cx="0" cy="0" rx="200" ry="135" fill="url(#coin-rim)"/>
      <ellipse cx="0" cy="0" rx="200" ry="135" fill="none" stroke="#3a2810" stroke-width="2"/>
      <ellipse cx="0" cy="0" rx="190" ry="125" fill="none" stroke="#7a5510" stroke-width="1"/>
      <g transform="scale(1 0.7)" opacity="0.5">
        <path d="M 0 -90 L 22 -28 L 88 -28 L 35 14 L 56 76 L 0 36 L -56 76 L -35 14 L -88 -28 L -22 -28 Z"
              fill="#7a5510"/>
      </g>
    </g>
    <path d="M 280 820 Q 480 320 760 380" stroke="url(#trail-grad)" stroke-width="22"
          fill="none" stroke-linecap="round" opacity="0.5" filter="url(#bokeh-blur)"/>
    <path d="M 320 800 Q 510 350 780 380" stroke="url(#trail-grad)" stroke-width="12"
          fill="none" stroke-linecap="round" opacity="0.7"/>
    <path d="M 380 770 Q 540 360 770 360" stroke="url(#trail-grad)" stroke-width="5"
          fill="none" stroke-linecap="round" opacity="0.8"/>
    <path d="M 350 820 Q 530 380 780 400" stroke="url(#trail-grad)" stroke-width="3"
          fill="none" stroke-linecap="round" opacity="0.9"/>
  </g>

  <g transform="translate(780 460)">
    <ellipse cx="0" cy="8" rx="220" ry="190" fill="#3a2810" filter="url(#coin-shadow)"/>
    <ellipse cx="0" cy="22" rx="220" ry="190" fill="url(#coin-edge)"/>
    <ellipse cx="0" cy="22" rx="220" ry="190" fill="none" stroke="#1a0f08" stroke-width="3"/>
    <g opacity="0.5">
      <line x1="-218" y1="22"  x2="-218" y2="32" stroke="#1a0f08" stroke-width="1.5"/>
      <line x1="-200" y1="40"  x2="-200" y2="50" stroke="#1a0f08" stroke-width="1.5"/>
      <line x1="-180" y1="58"  x2="-180" y2="66" stroke="#1a0f08" stroke-width="1.5"/>
      <line x1="-150" y1="78"  x2="-150" y2="86" stroke="#1a0f08" stroke-width="1.5"/>
      <line x1="-120" y1="98"  x2="-120" y2="106" stroke="#1a0f08" stroke-width="1.5"/>
      <line x1="-80"  y1="118" x2="-80"  y2="126" stroke="#1a0f08" stroke-width="1.5"/>
      <line x1="-40"  y1="130" x2="-40"  y2="140" stroke="#1a0f08" stroke-width="1.5"/>
      <line x1="0"    y1="138" x2="0"    y2="148" stroke="#1a0f08" stroke-width="1.5"/>
      <line x1="40"   y1="130" x2="40"   y2="140" stroke="#1a0f08" stroke-width="1.5"/>
      <line x1="80"   y1="118" x2="80"   y2="126" stroke="#1a0f08" stroke-width="1.5"/>
      <line x1="120"  y1="98"  x2="120"  y2="106" stroke="#1a0f08" stroke-width="1.5"/>
      <line x1="150"  y1="78"  x2="150"  y2="86" stroke="#1a0f08" stroke-width="1.5"/>
      <line x1="180"  y1="58"  x2="180"  y2="66" stroke="#1a0f08" stroke-width="1.5"/>
      <line x1="200"  y1="40"  x2="200"  y2="50" stroke="#1a0f08" stroke-width="1.5"/>
      <line x1="218"  y1="22"  x2="218"  y2="32" stroke="#1a0f08" stroke-width="1.5"/>
    </g>
    <ellipse cx="0" cy="0" rx="220" ry="190" fill="url(#coin-face)"/>
    <ellipse cx="0" cy="0" rx="220" ry="190" fill="none" stroke="#7a5510" stroke-width="3"/>
    <ellipse cx="0" cy="0" rx="208" ry="178" fill="none" stroke="#3a2810" stroke-width="2"/>
    <ellipse cx="0" cy="0" rx="200" ry="170" fill="none" stroke="#ffe9a8" stroke-width="1" opacity="0.6"/>
    <g filter="url(#engrave)">
      <g transform="scale(1 0.86)">
        <path d="M 0 -125 L 30 -38 L 122 -38 L 48 18 L 78 105 L 0 50 L -78 105 L -48 18 L -122 -38 L -30 -38 Z"
              fill="#3a2810" opacity="0.5" transform="translate(4 6)"/>
        <path d="M 0 -125 L 30 -38 L 122 -38 L 48 18 L 78 105 L 0 50 L -78 105 L -48 18 L -122 -38 L -30 -38 Z"
              fill="#7a5510" stroke="#3a2810" stroke-width="3"/>
        <path d="M 0 -125 L 30 -38 L 0 -38 Z" fill="#c8941d"/>
        <path d="M 0 -125 L -30 -38 L 0 -38 Z" fill="#ffe9a8"/>
        <path d="M -122 -38 L -30 -38 L -50 -16 Z" fill="#c8941d"/>
        <path d="M 0 50 L 78 105 L 48 18 L 0 18 Z" fill="#3a2810" opacity="0.6"/>
        <path d="M 0 50 L -78 105 L -48 18 L 0 18 Z" fill="#5a3810" opacity="0.4"/>
        <circle cx="0"   cy="-125" r="9" fill="#c8941d" stroke="#3a2810" stroke-width="2.5"/>
        <circle cx="122" cy="-38"  r="9" fill="#c8941d" stroke="#3a2810" stroke-width="2.5"/>
        <circle cx="-122" cy="-38" r="9" fill="#c8941d" stroke="#3a2810" stroke-width="2.5"/>
        <circle cx="78"  cy="105"  r="9" fill="#c8941d" stroke="#3a2810" stroke-width="2.5"/>
        <circle cx="-78" cy="105"  r="9" fill="#c8941d" stroke="#3a2810" stroke-width="2.5"/>
        <circle cx="-2" cy="-128" r="3" fill="#ffe9a8"/>
        <circle cx="-124" cy="-41" r="3" fill="#ffe9a8"/>
        <circle cx="0" cy="0" r="22" fill="#3a2810"/>
        <circle cx="0" cy="0" r="20" fill="#c8941d"/>
        <text x="0" y="8" text-anchor="middle" font-family="Georgia, serif"
              font-size="24" font-weight="bold" fill="#3a2810">★</text>
      </g>
    </g>
    <ellipse cx="0" cy="0" rx="218" ry="188" fill="url(#coin-gloss)" pointer-events="none"/>
    <path d="M -200 -40 Q -160 -180 0 -188" fill="none" stroke="#fff9e0" stroke-width="3"
          opacity="0.6" stroke-linecap="round"/>
  </g>

  <g filter="url(#spark-glow)">
    <g fill="#fff9e0">
      <path d="M 540 320 l 4 -16 l 4 16 l 16 4 l -16 4 l -4 16 l -4 -16 l -16 -4 z"/>
      <path d="M 1010 380 l 5 -20 l 5 20 l 20 5 l -20 5 l -5 20 l -5 -20 l -20 -5 z"/>
      <path d="M 480 540 l 3 -12 l 3 12 l 12 3 l -12 3 l -3 12 l -3 -12 l -12 -3 z"/>
      <path d="M 1080 580 l 4 -16 l 4 16 l 16 4 l -16 4 l -4 16 l -4 -16 l -16 -4 z"/>
    </g>
    <g fill="#ffd84d">
      <circle cx="620" cy="280" r="3"/>
      <circle cx="900" cy="260" r="4"/>
      <circle cx="380" cy="420" r="3"/>
      <circle cx="1140" cy="450" r="3.5"/>
      <circle cx="700" cy="220" r="2.5"/>
      <circle cx="950" cy="540" r="3"/>
      <circle cx="600" cy="600" r="2.5"/>
      <circle cx="430" cy="280" r="2"/>
      <circle cx="1180" cy="320" r="2"/>
      <circle cx="510" cy="640" r="2.5"/>
    </g>
    <g fill="#fff9e0">
      <circle cx="660" cy="350" r="1.5"/>
      <circle cx="850" cy="320" r="1.5"/>
      <circle cx="730" cy="600" r="1.5"/>
      <circle cx="1050" cy="500" r="1.5"/>
      <circle cx="450" cy="380" r="1.5"/>
      <circle cx="990" cy="290" r="1.5"/>
    </g>
  </g>

  <g transform="translate(1500 850)">
    <g transform="rotate(-3)">
      <ellipse cx="4" cy="40" rx="120" ry="22" fill="#1a0a08" opacity="0.6"/>
      <ellipse cx="0" cy="32" rx="120" ry="22" fill="#3a0a0a"/>
      <ellipse cx="0" cy="0"  rx="120" ry="22" fill="#1a0f08"/>
      <ellipse cx="0" cy="-2" rx="120" ry="22" fill="#8b1a1a"/>
      <ellipse cx="0" cy="-4" rx="120" ry="22" fill="#c83838"/>
      <ellipse cx="0" cy="-4" rx="120" ry="22" fill="none" stroke="#3a0a0a" stroke-width="2"/>
      <ellipse cx="0" cy="-4" rx="80" ry="14" fill="#fef6e4" opacity="0.9"/>
      <ellipse cx="0" cy="-4" rx="80" ry="14" fill="none" stroke="#3a0a0a" stroke-width="2"/>
      <g fill="#fef6e4">
        <ellipse cx="-105" cy="14" rx="6" ry="3"/>
        <ellipse cx="-50" cy="22" rx="6" ry="3"/>
        <ellipse cx="20" cy="22" rx="6" ry="3"/>
        <ellipse cx="80" cy="18" rx="6" ry="3"/>
      </g>
      <text x="0" y="3" text-anchor="middle" font-family="Georgia, serif"
            font-size="22" font-weight="bold" fill="#3a0a0a">$5</text>
    </g>
    <g transform="translate(20 -42) rotate(4)">
      <ellipse cx="0" cy="0"  rx="118" ry="22" fill="#1a0f08"/>
      <ellipse cx="0" cy="-2" rx="118" ry="22" fill="#7a5510"/>
      <ellipse cx="0" cy="-4" rx="118" ry="22" fill="#c8941d"/>
      <ellipse cx="0" cy="-4" rx="118" ry="22" fill="none" stroke="#3a2810" stroke-width="2"/>
      <ellipse cx="0" cy="-4" rx="78" ry="14" fill="#fef6e4" opacity="0.9"/>
      <ellipse cx="0" cy="-4" rx="78" ry="14" fill="none" stroke="#3a2810" stroke-width="2"/>
      <g fill="#fef6e4">
        <ellipse cx="-100" cy="14" rx="6" ry="3"/>
        <ellipse cx="-40" cy="22" rx="6" ry="3"/>
        <ellipse cx="30" cy="22" rx="6" ry="3"/>
        <ellipse cx="90" cy="14" rx="6" ry="3"/>
      </g>
      <text x="0" y="3" text-anchor="middle" font-family="Georgia, serif"
            font-size="22" font-weight="bold" fill="#3a2810">$25</text>
    </g>
    <g transform="translate(-40 -82) rotate(-6)">
      <ellipse cx="0" cy="0"  rx="116" ry="22" fill="#0a0408"/>
      <ellipse cx="0" cy="-2" rx="116" ry="22" fill="#143348"/>
      <ellipse cx="0" cy="-4" rx="116" ry="22" fill="#5fa8d3"/>
      <ellipse cx="0" cy="-4" rx="116" ry="22" fill="none" stroke="#0a0408" stroke-width="2"/>
      <ellipse cx="0" cy="-4" rx="76" ry="14" fill="#fef6e4" opacity="0.9"/>
      <ellipse cx="0" cy="-4" rx="76" ry="14" fill="none" stroke="#0a0408" stroke-width="2"/>
      <g fill="#fef6e4">
        <ellipse cx="-95" cy="12" rx="6" ry="3"/>
        <ellipse cx="-30" cy="22" rx="6" ry="3"/>
        <ellipse cx="40" cy="22" rx="6" ry="3"/>
        <ellipse cx="95" cy="10" rx="6" ry="3"/>
      </g>
      <text x="0" y="3" text-anchor="middle" font-family="Georgia, serif"
            font-size="22" font-weight="bold" fill="#0a0408">$100</text>
    </g>
    <g transform="translate(-160 50) rotate(75)">
      <ellipse cx="0" cy="0" rx="65" ry="14" fill="#1a0f08"/>
      <ellipse cx="0" cy="-2" rx="65" ry="14" fill="#c8941d"/>
      <ellipse cx="0" cy="-2" rx="65" ry="14" fill="none" stroke="#3a2810" stroke-width="1.5"/>
      <ellipse cx="0" cy="-2" rx="40" ry="8" fill="#fef6e4"/>
    </g>
  </g>

  <g transform="translate(1280 200) rotate(-15)" opacity="0.65">
    <ellipse cx="0" cy="0" rx="80" ry="68" fill="url(#coin-rim)"/>
    <ellipse cx="0" cy="0" rx="80" ry="68" fill="none" stroke="#3a2810" stroke-width="2"/>
    <ellipse cx="0" cy="0" rx="68" ry="56" fill="none" stroke="#7a5510" stroke-width="1.5"/>
    <g transform="scale(0.55 0.55)">
      <path d="M 0 -55 L 13 -16 L 52 -16 L 21 8 L 34 47 L 0 24 L -34 47 L -21 8 L -52 -16 L -13 -16 Z"
            fill="#7a5510"/>
    </g>
    <ellipse cx="-20" cy="-28" rx="28" ry="20" fill="white" opacity="0.3"/>
  </g>
  <g transform="translate(1640 360) rotate(40)" opacity="0.5">
    <ellipse cx="0" cy="0" rx="60" ry="8" fill="url(#coin-edge)"/>
    <ellipse cx="0" cy="0" rx="60" ry="8" fill="none" stroke="#3a2810" stroke-width="1"/>
  </g>
  <g transform="translate(380 220) rotate(25)" opacity="0.4">
    <ellipse cx="0" cy="0" rx="40" ry="34" fill="url(#coin-rim)"/>
    <ellipse cx="0" cy="0" rx="40" ry="34" fill="none" stroke="#3a2810" stroke-width="1.5"/>
    <ellipse cx="0" cy="0" rx="32" ry="26" fill="none" stroke="#7a5510" stroke-width="1"/>
  </g>

  <g opacity="0.4">
    <circle cx="200" cy="450" r="2" fill="#ffd84d"/>
    <circle cx="300" cy="650" r="1.5" fill="#fff9e0"/>
    <circle cx="450" cy="800" r="2" fill="#ffd84d"/>
    <circle cx="1300" cy="700" r="2" fill="#ffd84d"/>
    <circle cx="1500" cy="500" r="1.5" fill="#fff9e0"/>
    <circle cx="1700" cy="650" r="2" fill="#ffd84d"/>
    <circle cx="120" cy="850" r="1.5" fill="#fff9e0"/>
    <circle cx="850" cy="900" r="2" fill="#ffd84d"/>
    <circle cx="1100" cy="850" r="1.5" fill="#fff9e0"/>
  </g>

  <radialGradient id="vignette" cx="50%" cy="50%" r="70%">
    <stop offset="60%" stop-color="black" stop-opacity="0"/>
    <stop offset="100%" stop-color="black" stop-opacity="0.6"/>
  </radialGradient>
  <rect width="1920" height="1080" fill="url(#vignette)" pointer-events="none"/>
</svg>
