<svg xmlns="http://www.w3.org/2000/svg" viewBox="0 0 64 64" shape-rendering="crispEdges" style="image-rendering:pixelated">
  
  <g fill="#1a0f08">
    <rect x="28" y="2" width="8" height="6"></rect>
    <rect x="26" y="8" width="12" height="4"></rect>
    <rect x="2" y="28" width="6" height="8"></rect>
    <rect x="8" y="26" width="4" height="12"></rect>
    <rect x="56" y="28" width="6" height="8"></rect>
    <rect x="52" y="26" width="4" height="12"></rect>
    <rect x="28" y="56" width="8" height="6"></rect>
    <rect x="26" y="52" width="12" height="4"></rect>
    <rect x="10" y="10" width="8" height="8"></rect>
    <rect x="46" y="10" width="8" height="8"></rect>
    <rect x="10" y="46" width="8" height="8"></rect>
    <rect x="46" y="46" width="8" height="8"></rect>
    <rect x="14" y="14" width="36" height="36"></rect>
  </g>
  
  <g fill="#f5c842">
    <rect x="30" y="4" width="4" height="6"></rect>
    <rect x="28" y="10" width="8" height="4"></rect>
    <rect x="4" y="30" width="6" height="4"></rect>
    <rect x="10" y="28" width="4" height="8"></rect>
    <rect x="54" y="30" width="6" height="4"></rect>
    <rect x="50" y="28" width="4" height="8"></rect>
    <rect x="30" y="54" width="4" height="6"></rect>
    <rect x="28" y="50" width="8" height="4"></rect>
    <rect x="14" y="14" width="36" height="36"></rect>
    
    <rect x="12" y="12" width="6" height="6"></rect>
    <rect x="46" y="12" width="6" height="6"></rect>
    <rect x="12" y="46" width="6" height="6"></rect>
    <rect x="46" y="46" width="6" height="6"></rect>
  </g>
  
  <g fill="#ffe9a8">
    <rect x="14" y="14" width="36" height="2"></rect>
    <rect x="14" y="14" width="2" height="36"></rect>
    <rect x="30" y="4" width="2" height="6"></rect>
    <rect x="4" y="30" width="6" height="2"></rect>
  </g>
  
  <g fill="#c8941d">
    <rect x="14" y="48" width="36" height="2"></rect>
    <rect x="48" y="14" width="2" height="36"></rect>
    <rect x="32" y="54" width="2" height="6"></rect>
    <rect x="54" y="32" width="6" height="2"></rect>
  </g>
  
  <g fill="#1a0f08">
    <rect x="24" y="22" width="4" height="20"></rect>
    <rect x="24" y="38" width="16" height="4"></rect>
  </g>
  
  <g fill="#1a0f08">
    <rect x="30" y="6" width="4" height="2"></rect>
    <rect x="30" y="56" width="4" height="2"></rect>
    <rect x="6" y="30" width="2" height="4"></rect>
    <rect x="56" y="30" width="2" height="4"></rect>
  </g>
</svg>