<svg xmlns="http://www.w3.org/2000/svg" viewBox="0 0 200 300">
  <defs>
    <clipPath id="topHalf"><rect x="0" y="0" width="200" height="150"></rect></clipPath>
    <clipPath id="botHalf"><rect x="0" y="150" width="200" height="150"></rect></clipPath>
  </defs>
  
  <g clip-path="url(#topHalf)">
    
    <circle cx="100" cy="80" r="55" fill="#0e3320" opacity="0.06"></circle>

    
    <line x1="58" y1="138" x2="50" y2="100" stroke="#2d5a2d" stroke-width="2.5"></line>
    <ellipse cx="48" cy="98" rx="5" ry="8" fill="#1a1a1a" stroke="#1a1a1a" stroke-width="1.5"></ellipse>
    <circle cx="48" cy="95" r="3" fill="#f4d03f"></circle>
    <ellipse cx="55" cy="115" rx="4" ry="2" fill="#3a7a3a" stroke="#1a1a1a" stroke-width="1" transform="rotate(-30 55 115)"></ellipse>

    
    <path d="M 30 145 Q 100 115 170 145 L 175 150 Q 100 132 25 150 Z" fill="#1a4d2e" stroke="#1a1a1a" stroke-width="2"></path>
    
    <path d="M 35 142 Q 100 118 165 142" fill="none" stroke="#f4d03f" stroke-width="3"></path>

    
    <ellipse cx="100" cy="142" rx="10" ry="6" fill="#f4d03f" stroke="#1a1a1a" stroke-width="1.5"></ellipse>
    <circle cx="100" cy="142" r="3" fill="#1a1a1a" stroke="#1a1a1a" stroke-width="1"></circle>

    
    <path d="M 72 118 Q 100 108 128 118 Q 128 126 100 122 Q 72 126 72 118 Z" fill="#ffffff" stroke="#1a1a1a" stroke-width="2"></path>
    
    <path d="M 78 119 Q 80 124 82 119 M 88 120 Q 90 125 92 120 M 98 121 Q 100 126 102 121 M 108 120 Q 110 125 112 120 M 118 119 Q 120 124 122 119" fill="none" stroke="#1a1a1a" stroke-width="1"></path>

    
    <rect x="92" y="108" width="16" height="12" fill="#f5d4a8" stroke="#1a1a1a" stroke-width="1.5"></rect>

    
    <path d="M 64 60 Q 50 100 60 130 L 75 122 Q 70 100 78 70 Z" fill="#d4a849" stroke="#1a1a1a" stroke-width="1.5"></path>
    <path d="M 136 60 Q 150 100 140 130 L 125 122 Q 130 100 122 70 Z" fill="#d4a849" stroke="#1a1a1a" stroke-width="1.5"></path>

    
    <ellipse cx="100" cy="80" rx="25" ry="30" fill="#f5d4a8" stroke="#1a1a1a" stroke-width="2"></ellipse>

    
    <ellipse cx="82" cy="88" rx="5" ry="3" fill="#1a1a1a" opacity="0.3"></ellipse>
    <ellipse cx="118" cy="88" rx="5" ry="3" fill="#1a1a1a" opacity="0.3"></ellipse>

    
    <ellipse cx="90" cy="78" rx="3" ry="2" fill="#ffffff" stroke="#1a1a1a" stroke-width="1"></ellipse>
    <ellipse cx="110" cy="78" rx="3" ry="2" fill="#ffffff" stroke="#1a1a1a" stroke-width="1"></ellipse>
    <circle cx="90" cy="78" r="1.2" fill="#1a1a1a"></circle>
    <circle cx="110" cy="78" r="1.2" fill="#1a1a1a"></circle>
    
    <path d="M 87 76 L 86 74 M 90 75 L 90 73 M 93 76 L 94 74" stroke="#1a1a1a" stroke-width="1" stroke-linecap="round"></path>
    <path d="M 107 76 L 106 74 M 110 75 L 110 73 M 113 76 L 114 74" stroke="#1a1a1a" stroke-width="1" stroke-linecap="round"></path>
    
    <path d="M 84 71 Q 90 68 95 71" fill="none" stroke="#1a1a1a" stroke-width="1.5" stroke-linecap="round"></path>
    <path d="M 105 71 Q 110 68 116 71" fill="none" stroke="#1a1a1a" stroke-width="1.5" stroke-linecap="round"></path>
    
    <path d="M 100 84 Q 98 92 100 94 Q 102 92 100 84" fill="#d4a574" stroke="#1a1a1a" stroke-width="1"></path>
    
    <path d="M 94 100 Q 100 99 106 100 Q 100 104 94 100" fill="#1a1a1a" stroke="#1a1a1a" stroke-width="1.2"></path>

    
    <path d="M 70 56 L 76 38 L 84 50 L 92 32 L 100 50 L 108 32 L 116 50 L 124 38 L 130 56 Z" fill="#f4d03f" stroke="#1a1a1a" stroke-width="2"></path>
    
    <rect x="68" y="54" width="64" height="8" fill="#f4d03f" stroke="#1a1a1a" stroke-width="2"></rect>
    
    <circle cx="84" cy="58" r="2.5" fill="#1a1a1a" stroke="#1a1a1a" stroke-width="1"></circle>
    <circle cx="100" cy="58" r="3" fill="#c8102e" stroke="#1a1a1a" stroke-width="1"></circle>
    <circle cx="116" cy="58" r="2.5" fill="#1a1a1a" stroke="#1a1a1a" stroke-width="1"></circle>
    
    <circle cx="76" cy="38" r="2" fill="#f4d03f" stroke="#1a1a1a" stroke-width="1"></circle>
    <circle cx="92" cy="32" r="2" fill="#f4d03f" stroke="#1a1a1a" stroke-width="1"></circle>
    <circle cx="108" cy="32" r="2" fill="#f4d03f" stroke="#1a1a1a" stroke-width="1"></circle>
    <circle cx="124" cy="38" r="2" fill="#f4d03f" stroke="#1a1a1a" stroke-width="1"></circle>

    
    <circle cx="73" cy="88" r="2" fill="#f4d03f" stroke="#1a1a1a" stroke-width="0.8"></circle>
    <circle cx="127" cy="88" r="2" fill="#f4d03f" stroke="#1a1a1a" stroke-width="0.8"></circle>

    
    <g transform="translate(155 110) scale(0.45)">
      <g fill="#1a1a1a" stroke="#1a1a1a" stroke-width="1"><circle cx="32" cy="18" r="11"></circle><circle cx="18" cy="36" r="11"></circle><circle cx="46" cy="36" r="11"></circle><path d="M32 32 C 33 38, 36 44, 40 48 C 36 50, 33 53, 32 58 C 31 53, 28 50, 24 48 C 28 44, 31 38, 32 32 Z"></path></g>
    </g>
  </g>
  
  <g clip-path="url(#botHalf)" transform="rotate(180 100 150)">
    
    <circle cx="100" cy="80" r="55" fill="#0e3320" opacity="0.06"></circle>

    
    <line x1="58" y1="138" x2="50" y2="100" stroke="#2d5a2d" stroke-width="2.5"></line>
    <ellipse cx="48" cy="98" rx="5" ry="8" fill="#1a1a1a" stroke="#1a1a1a" stroke-width="1.5"></ellipse>
    <circle cx="48" cy="95" r="3" fill="#f4d03f"></circle>
    <ellipse cx="55" cy="115" rx="4" ry="2" fill="#3a7a3a" stroke="#1a1a1a" stroke-width="1" transform="rotate(-30 55 115)"></ellipse>

    
    <path d="M 30 145 Q 100 115 170 145 L 175 150 Q 100 132 25 150 Z" fill="#1a4d2e" stroke="#1a1a1a" stroke-width="2"></path>
    
    <path d="M 35 142 Q 100 118 165 142" fill="none" stroke="#f4d03f" stroke-width="3"></path>

    
    <ellipse cx="100" cy="142" rx="10" ry="6" fill="#f4d03f" stroke="#1a1a1a" stroke-width="1.5"></ellipse>
    <circle cx="100" cy="142" r="3" fill="#1a1a1a" stroke="#1a1a1a" stroke-width="1"></circle>

    
    <path d="M 72 118 Q 100 108 128 118 Q 128 126 100 122 Q 72 126 72 118 Z" fill="#ffffff" stroke="#1a1a1a" stroke-width="2"></path>
    
    <path d="M 78 119 Q 80 124 82 119 M 88 120 Q 90 125 92 120 M 98 121 Q 100 126 102 121 M 108 120 Q 110 125 112 120 M 118 119 Q 120 124 122 119" fill="none" stroke="#1a1a1a" stroke-width="1"></path>

    
    <rect x="92" y="108" width="16" height="12" fill="#f5d4a8" stroke="#1a1a1a" stroke-width="1.5"></rect>

    
    <path d="M 64 60 Q 50 100 60 130 L 75 122 Q 70 100 78 70 Z" fill="#d4a849" stroke="#1a1a1a" stroke-width="1.5"></path>
    <path d="M 136 60 Q 150 100 140 130 L 125 122 Q 130 100 122 70 Z" fill="#d4a849" stroke="#1a1a1a" stroke-width="1.5"></path>

    
    <ellipse cx="100" cy="80" rx="25" ry="30" fill="#f5d4a8" stroke="#1a1a1a" stroke-width="2"></ellipse>

    
    <ellipse cx="82" cy="88" rx="5" ry="3" fill="#1a1a1a" opacity="0.3"></ellipse>
    <ellipse cx="118" cy="88" rx="5" ry="3" fill="#1a1a1a" opacity="0.3"></ellipse>

    
    <ellipse cx="90" cy="78" rx="3" ry="2" fill="#ffffff" stroke="#1a1a1a" stroke-width="1"></ellipse>
    <ellipse cx="110" cy="78" rx="3" ry="2" fill="#ffffff" stroke="#1a1a1a" stroke-width="1"></ellipse>
    <circle cx="90" cy="78" r="1.2" fill="#1a1a1a"></circle>
    <circle cx="110" cy="78" r="1.2" fill="#1a1a1a"></circle>
    
    <path d="M 87 76 L 86 74 M 90 75 L 90 73 M 93 76 L 94 74" stroke="#1a1a1a" stroke-width="1" stroke-linecap="round"></path>
    <path d="M 107 76 L 106 74 M 110 75 L 110 73 M 113 76 L 114 74" stroke="#1a1a1a" stroke-width="1" stroke-linecap="round"></path>
    
    <path d="M 84 71 Q 90 68 95 71" fill="none" stroke="#1a1a1a" stroke-width="1.5" stroke-linecap="round"></path>
    <path d="M 105 71 Q 110 68 116 71" fill="none" stroke="#1a1a1a" stroke-width="1.5" stroke-linecap="round"></path>
    
    <path d="M 100 84 Q 98 92 100 94 Q 102 92 100 84" fill="#d4a574" stroke="#1a1a1a" stroke-width="1"></path>
    
    <path d="M 94 100 Q 100 99 106 100 Q 100 104 94 100" fill="#1a1a1a" stroke="#1a1a1a" stroke-width="1.2"></path>

    
    <path d="M 70 56 L 76 38 L 84 50 L 92 32 L 100 50 L 108 32 L 116 50 L 124 38 L 130 56 Z" fill="#f4d03f" stroke="#1a1a1a" stroke-width="2"></path>
    
    <rect x="68" y="54" width="64" height="8" fill="#f4d03f" stroke="#1a1a1a" stroke-width="2"></rect>
    
    <circle cx="84" cy="58" r="2.5" fill="#1a1a1a" stroke="#1a1a1a" stroke-width="1"></circle>
    <circle cx="100" cy="58" r="3" fill="#c8102e" stroke="#1a1a1a" stroke-width="1"></circle>
    <circle cx="116" cy="58" r="2.5" fill="#1a1a1a" stroke="#1a1a1a" stroke-width="1"></circle>
    
    <circle cx="76" cy="38" r="2" fill="#f4d03f" stroke="#1a1a1a" stroke-width="1"></circle>
    <circle cx="92" cy="32" r="2" fill="#f4d03f" stroke="#1a1a1a" stroke-width="1"></circle>
    <circle cx="108" cy="32" r="2" fill="#f4d03f" stroke="#1a1a1a" stroke-width="1"></circle>
    <circle cx="124" cy="38" r="2" fill="#f4d03f" stroke="#1a1a1a" stroke-width="1"></circle>

    
    <circle cx="73" cy="88" r="2" fill="#f4d03f" stroke="#1a1a1a" stroke-width="0.8"></circle>
    <circle cx="127" cy="88" r="2" fill="#f4d03f" stroke="#1a1a1a" stroke-width="0.8"></circle>

    
    <g transform="translate(155 110) scale(0.45)">
      <g fill="#1a1a1a" stroke="#1a1a1a" stroke-width="1"><circle cx="32" cy="18" r="11"></circle><circle cx="18" cy="36" r="11"></circle><circle cx="46" cy="36" r="11"></circle><path d="M32 32 C 33 38, 36 44, 40 48 C 36 50, 33 53, 32 58 C 31 53, 28 50, 24 48 C 28 44, 31 38, 32 32 Z"></path></g>
    </g>
  </g>
  
  <line x1="0" y1="150" x2="200" y2="150" stroke="#1a1a1a" stroke-width="0.6" stroke-dasharray="2 3" opacity="0.35"></line>
</svg>